<svg id="Layer_1-2" xmlns="http://www.w3.org/2000/svg" width="231.987" height="208.36" viewBox="0 0 231.987 208.36">
  <g id="Group_155" data-name="Group 155" transform="translate(0 0)">
    <path id="Path_3719" data-name="Path 3719" d="M40.629,109.469c0-16.147-.117-30.834.029-45.521.117-12.643-.175-25.344,1.08-37.871.759-7.562,3.679-15.037,6.686-22.1C49.33,1.843,54.177-.289,56.688.208,83.171,5.58,80.835-2.128,76.4,26.487Q72.236,53.2,67.725,79.862c-2.482,14.687-10.1,25.052-27.125,29.607Z" transform="translate(77.904 0.288)" fill="#fff"/>
    <path id="Path_3720" data-name="Path 3720" d="M109.69,48.069C93.777,57.062,78.8,65.588,63.819,74.026c-9.46,5.314-18.6,11.417-28.556,15.534-7.008,2.891-15.125,3.475-22.8,4.2-1.752.175-4.584-2.92-5.665-5.11C-3.775,67.282-3.717,67.194,19.35,58.434c17.577-6.657,35.1-13.461,52.791-19.709C85.777,33.908,98.157,36.1,109.69,48.1Z" transform="translate(-0.004 69.805)" fill="#fff"/>
    <path id="Path_3721" data-name="Path 3721" d="M42.24,46.679c9.635-8.818,19.826-12.76,31.914-8.409,23.738,8.555,47.331,17.578,71.04,26.22,5.81,2.131,7.066,5.4,4.321,10.745a43.405,43.405,0,0,0-2.219,6.1C143.238,93.222,132,99.12,120.842,93.163c-25.111-13.4-49.608-27.914-74.31-42.075-1.431-.818-2.394-2.423-4.263-4.409Z" transform="translate(81.081 70.085)" fill="#fff"/>
    <path id="Path_3722" data-name="Path 3722" d="M114.691,127.986C92.412,109.649,70.368,92.247,49.257,73.793c-8.76-7.65-9.9-17.986-6.745-31.943,2.686,1.022,5.46,1.635,7.767,3.007,22.016,13.11,44.236,25.958,65.784,39.856,5.957,3.854,10.073,10.774,14.482,16.672,1.051,1.4.642,5.051-.467,6.657-4.5,6.424-9.519,12.468-15.358,19.913Z" transform="translate(78.532 80.375)" fill="#fff"/>
    <path id="Path_3723" data-name="Path 3723" d="M23.619,127.754c-6.219-7.446-13.9-12.7-15.037-19.125-1.11-6.219,2.54-16.7,7.562-20C41.459,72.014,67.913,57.094,94.016,41.56c5.46,11.125,4.409,22.483-4.5,30.337C68.438,90.555,46.6,108.366,23.589,127.725Z" transform="translate(16.078 79.818)" fill="#fff"/>
    <path id="Path_3724" data-name="Path 3724" d="M62.622,109.338c-12.585-3.1-20.673-9.928-22.921-21.49C34.767,62.3,30.65,36.575,26.474,10.881c-.35-2.073.438-5.373,1.927-6.57C40.752-5.471,61.688,2.325,62.3,17.976c1.168,29.929.35,59.945.35,91.363Z" transform="translate(50.655 0.01)" fill="#fff"/>
  </g>
</svg>
