<svg id="Layer_1-2" xmlns="http://www.w3.org/2000/svg" width="242.179" height="242.244" viewBox="0 0 242.179 242.244">
  <g id="Group_156" data-name="Group 156" transform="translate(0 0)">
    <path id="Path_3726" data-name="Path 3726" d="M22.661,93.831C34.77,80.2,46.751,74.317,61.975,66.848c3.274-1.621,5.975-2.8,8.3-3.687.064-.032.159-.064.222-.1,2.7-1.335,5.625-2,11.442-3.305,4.1-.922,5.276-1.049,5.911-.318.985,1.112-.572,2.86-.381,7.119a10.874,10.874,0,0,0,.127,1.462C92.1,78.29,99.986,87.793,106.247,92.5a47.816,47.816,0,0,0,13.984,6.9c3.305.667,6.547,1.494,9.63,1.97a44.522,44.522,0,0,0,6.2.254c1.939-.1,3.655-.286,5.276-.286,15.287-2.32,29.907-13,36.931-23.137,11.728-16.908,9.789-43.16-4.672-66.3A121.24,121.24,0,0,0,0,121.1,126.964,126.964,0,0,0,.763,134.64a100.881,100.881,0,0,1,21.9-40.777Z" transform="translate(0 -0.01)" fill="#fff"/>
    <path id="Path_3727" data-name="Path 3727" d="M151.849,155.525c-17.925-3.369-29.112-10.615-43.383-19.8-3.051-1.97-5.467-3.687-7.437-5.212-.064-.032-.127-.1-.191-.127-2.543-1.621-4.608-3.782-8.708-8.1-2.892-3.019-3.591-4-3.305-4.894.445-1.43,2.765-.985,6.325-3.337a12.561,12.561,0,0,0,1.176-.858,54.181,54.181,0,0,0,11.251-27.237,49.394,49.394,0,0,0,.159-8.327,53.2,53.2,0,0,0-5.562-17.957c-8.263-15.891-25.14-28.223-43.414-30C36.734,27.506,12.961,44.382.28,71.588a121.135,121.135,0,0,0,120.2,106.47,120.419,120.419,0,0,0,71.1-23.106,100.233,100.233,0,0,1-39.759.6Z" transform="translate(0.61 64.186)" fill="#fff"/>
    <path id="Path_3728" data-name="Path 3728" d="M89.323,4.392a100.123,100.123,0,0,1,18.624,32.227c6.007,17.226,5.339,30.511,4.449,47.451-.191,3.623-.477,6.579-.826,9.058v.222c-.127,3.019-.985,5.88-2.67,11.6-1.176,4-1.653,5.117-2.606,5.308-1.462.318-2.225-1.907-6.039-3.814-.477-.222-.922-.413-1.335-.6-11.187-1.049-23.3,1.208-30.447,4.386a48.946,48.946,0,0,0-22.438,21.612c-.763,1.557-1.557,3.274-1.557,3.274a70.616,70.616,0,0,0-2.8,7.342,61.663,61.663,0,0,0-1.049,17.162s.6,10.3,4.8,19.133C54.395,197.66,78.8,209.2,106.676,207.7A121.1,121.1,0,0,0,89.26,4.36Z" transform="translate(88.084 9.465)" fill="#fff"/>
  </g>
</svg>
