<svg xmlns="http://www.w3.org/2000/svg" width="213" height="204.37" viewBox="0 0 213 204.37">
  <g id="Layer_1-2" transform="translate(0.02 -0.01)">
    <path id="Path_3729" data-name="Path 3729" d="M.022,173.325C13.383,144.01,26.116,116.1,39.143,87.514c-4.475-.753-7.444-1.255-11.709-1.986,1.547-3.366,2.154-6.691,4.119-8.51,4.746-4.37,3.555-8.2.857-13.047C24.109,49,16.205,33.82,8.155,18.7c-.585-1.108-.983-2.321-2.133-5.018,6.022.983,10.852,2.237,15.724,2.467,17.25.774,29.733,6.461,29.44,26.575,0,1.087,1.066,2.175,2.844,5.6,4.621-22.059,23.1-15.368,36.654-20.261C86.669,17.552,87.61,8.373,97.5,2.561a17.2,17.2,0,0,1,19.174.774c8.489,5.9,9.116,14.406,5.9,24.443,5.855,1.464,11.312,4.1,16.644,3.847,8.865-.439,14.26,2.865,17.605,10.685.669,1.526,2.091,2.739,4.454,5.687,1.777-8.217,3.011-14.908,4.767-21.453.585-2.175,2.216-5.332,3.889-5.729,12-2.739,24.15-4.872,38.159-7.569-1.924,3.994-2.99,6.44-4.245,8.761C195.961,36.6,188.1,51.216,180.07,65.748c-2.112,3.805-2.739,6.858.711,10.455,1.924,1.986,2.509,5.248,3.68,7.945-2.593.69-5.206,1.359-7.778,2.112a20.729,20.729,0,0,0-2.885,1.61c12.88,27.914,25.739,55.785,39.184,84.891-8.656,1.84-16.079,3.534-23.523,4.976-13.194,2.572-26.324,5.562-39.644,7.151-4.642.544-9.744-2.53-16.288-4.433-.795,1.087-2.885,3.847-4.872,6.67-16.2,22.937-27.516,23-43.679.23-1.924-2.718-3.785-5.478-6.482-9.367-8.531,12.127-19.153,6.085-29.105,4.433C33.414,179.765,17.5,176.587-.02,173.346Z" transform="translate(0 0)" fill="#fff"/>
  </g>
</svg>
